# xmcd
#
# Track frame offsets:
# 150
# 16045
# 37261
# 61986
# 77456
# 99034
# 117266
# 143036
# 154527
# 167258
# 184338
# 202554
# 212264
# 233352
# 245338
# 262517
#
# Disc length: 3728 seconds
#
#
# Revision: 0
# Processed by: cddbd v1.5.2PL0 Copyright (c) Steve Scherf et al.
# Submitted via: FreeRIP 2.945 
#
DISCID=a90e8e10
DTITLE=the Juke Joints - Let it roll
DYEAR=2005
DGENRE=Blues
TTITLE0=Million miles from nowhere
TTITLE1=Let it roll
TTITLE2=Louella
TTITLE3=Double talk
TTITLE4=Blues for the soul
TTITLE5=Treat my baby
TTITLE6=Im in the mood
TTITLE7=Marie marie
TTITLE8=The rumble
TTITLE9=You got to move
TTITLE10=99 pounds
TTITLE11=Bullfrog blues
TTITLE12=Steve's laste ramble
TTITLE13=Out of the blue
TTITLE14='K gae weer naer uus toe
TTITLE15=Boogie at midnight
EXTD=
EXTT0=
EXTT1=
EXTT2=
EXTT3=
EXTT4=
EXTT5=
EXTT6=
EXTT7=
EXTT8=
EXTT9=
EXTT10=
EXTT11=
EXTT12=
EXTT13=
EXTT14=
EXTT15=
PLAYORDER=
